<?xml version="1.0" standalone="no"?>
<!DOCTYPE svg PUBLIC "-//W3C//DTD SVG 20010904//EN"
 "http://www.w3.org/TR/2001/REC-SVG-20010904/DTD/svg10.dtd">
<svg version="1.0" xmlns="http://www.w3.org/2000/svg"
 width="512.000000pt" height="512.000000pt" viewBox="0 0 512.000000 512.000000"
 preserveAspectRatio="xMidYMid meet">
<metadata>
Created by potrace 1.16, written by Peter Selinger 2001-2019
</metadata>
<g transform="translate(0.000000,512.000000) scale(0.100000,-0.100000)"
fill="#000000" stroke="none">
<path d="M2970 4979 c-55 -25 -105 -71 -133 -124 l-22 -40 -3 -2235 c-2 -2045
-1 -2238 14 -2284 34 -101 137 -176 243 -176 42 0 266 61 955 260 496 144 920
268 944 276 60 22 101 60 128 119 l24 50 0 1729 c0 1267 -3 1739 -11 1767 -15
49 -62 105 -107 128 -21 10 -80 31 -132 45 -52 15 -467 135 -921 267 -889 257
-891 258 -979 218z m550 -2185 c6 -14 10 -119 10 -234 0 -115 -4 -220 -10
-234 -9 -26 -10 -26 -124 -26 -85 0 -116 4 -125 14 -17 20 -18 471 -1 491 10
12 37 15 126 15 114 0 115 0 124 -26z"/>
<path d="M1360 3920 l0 -610 173 -130 c96 -71 176 -130 178 -130 2 0 4 253 4
562 l0 563 415 3 415 2 0 175 0 175 -592 0 -593 0 0 -610z"/>
<path d="M1017 3243 c-15 -17 -17 -42 -17 -175 0 -138 -2 -158 -19 -179 l-19
-24 -467 -5 c-447 -5 -467 -6 -481 -24 -21 -29 -21 -523 0 -552 14 -18 34 -19
481 -24 l467 -5 19 -24 c17 -21 19 -41 19 -181 0 -143 2 -158 20 -175 11 -10
29 -16 42 -13 33 7 885 654 893 678 3 11 3 29 0 40 -8 26 -862 672 -895 678
-16 2 -32 -3 -43 -15z"/>
<path d="M1533 1940 l-173 -130 0 -610 0 -610 593 0 592 0 0 175 0 175 -415 2
-415 3 0 563 c0 309 -2 562 -5 562 -3 0 -83 -59 -177 -130z"/>
</g>
</svg>
